<?xml version="1.0" encoding="utf-8"?>
<!-- Generator: Adobe Illustrator 27.5.0, SVG Export Plug-In . SVG Version: 6.00 Build 0)  -->
<svg version="1.1" xmlns="http://www.w3.org/2000/svg" xmlns:xlink="http://www.w3.org/1999/xlink" x="0px" y="0px"
	 viewBox="0 0 500 500" style="enable-background:new 0 0 500 500;" xml:space="preserve">
<g id="BACKGROUND">
	<rect style="fill:#FFFFFF;" width="500" height="500"/>
</g>
<g id="OBJECTS">
	<g>
		
			<linearGradient id="SVGID_1_" gradientUnits="userSpaceOnUse" x1="234.481" y1="248.1636" x2="251.0207" y2="102.9805" gradientTransform="matrix(0.9998 -0.0182 0.0182 0.9998 -3.4752 4.0674)">
			<stop  offset="0" style="stop-color:#6170DB"/>
			<stop  offset="0.3999" style="stop-color:#6999EB"/>
			<stop  offset="0.7891" style="stop-color:#70BBF8"/>
			<stop  offset="1" style="stop-color:#73C8FC"/>
		</linearGradient>
		<path style="fill:url(#SVGID_1_);" d="M324.63,148.334c0.197,5.907-1.043,11.941-3.871,17.603l-2.229,4.461l-1.467,2.927
			l-29.801,59.632c-9.14,18.269-27.894,29.732-48.321,29.523l-12.184-0.129c-10.564-0.108-20.278,5.82-24.997,15.277l-0.753,1.494
			l-19.854-9.931l0.753-1.484c4.719-9.457,3.643-20.78-2.791-29.174l-7.407-9.667c-3.76-4.912-6.579-10.342-8.413-16.03
			c-0.477-1.462-0.883-2.934-1.221-4.429c-1.161-4.97-1.594-10.093-1.286-15.189c0.115-1.912,0.331-3.817,0.656-5.713
			c0.857-5.146,2.485-10.207,4.888-15.011l33.498-67.01c9.091-18.188,31.201-25.561,49.389-16.47l55.07,27.534
			c11.557,5.781,18.759,16.822,20.116,28.779C324.524,146.326,324.602,147.324,324.63,148.334z"/>
		
			<linearGradient id="SVGID_00000011015647827238086820000001526808983788439437_" gradientUnits="userSpaceOnUse" x1="160.6374" y1="176.9022" x2="325.4408" y2="176.9022" gradientTransform="matrix(0.9998 -0.0182 0.0182 0.9998 -3.4752 4.0674)">
			<stop  offset="0" style="stop-color:#831C8B"/>
			<stop  offset="0.1071" style="stop-color:#86218E;stop-opacity:0.8929"/>
			<stop  offset="0.2398" style="stop-color:#8E3195;stop-opacity:0.7602"/>
			<stop  offset="0.3859" style="stop-color:#9C4AA2;stop-opacity:0.6141"/>
			<stop  offset="0.5417" style="stop-color:#AF6DB4;stop-opacity:0.4583"/>
			<stop  offset="0.7052" style="stop-color:#C89ACB;stop-opacity:0.2948"/>
			<stop  offset="0.8724" style="stop-color:#E6D0E7;stop-opacity:0.1276"/>
			<stop  offset="1" style="stop-color:#FFFFFF;stop-opacity:0"/>
		</linearGradient>
		<path style="fill:url(#SVGID_00000011015647827238086820000001526808983788439437_);" d="M324.63,148.334
			c0.197,5.907-1.043,11.941-3.871,17.603l-4.587,9.33c-64.043-8.738-138.233,24.431-154.097,33.141
			c-1.161-4.97-1.594-10.093-1.286-15.189c0.115-1.912,0.331-3.817,0.656-5.713c17.628-10.162,37.696-19.268,59.25-26.391
			c38.813-12.818,75.527-17.906,103.71-15.788C324.524,146.326,324.602,147.324,324.63,148.334z"/>
		<path style="fill:#FFFFFF;" d="M324.469,148.237c-10.587-1.388-21.453-1.1-31.987-0.069c-17.232,1.684-34.276,5.484-51.042,9.699
			c-17.871,4.496-35.431,10.166-52.665,16.68c-9.347,3.53-18.59,7.309-27.749,11.296c0.732-5.944,2.466-11.807,5.236-17.348
			l17.622-35.256l15.876-31.754c9.091-18.188,31.201-25.561,49.389-16.47l5.864,2.934l49.205,24.6
			C317.984,119.44,325.546,133.775,324.469,148.237z"/>
		
			<linearGradient id="SVGID_00000164501857839929480390000013632591049143213188_" gradientUnits="userSpaceOnUse" x1="234.482" y1="248.1617" x2="251.0216" y2="102.98" gradientTransform="matrix(0.9998 -0.0182 0.0182 0.9998 -3.4752 4.0674)">
			<stop  offset="0" style="stop-color:#6170DB"/>
			<stop  offset="0.3999" style="stop-color:#6999EB"/>
			<stop  offset="0.7891" style="stop-color:#70BBF8"/>
			<stop  offset="1" style="stop-color:#73C8FC"/>
		</linearGradient>
		<path style="fill:url(#SVGID_00000164501857839929480390000013632591049143213188_);" d="M324.541,152.236
			c-10.587-1.388-21.453-1.1-31.987-0.069c-17.232,1.684-34.276,5.484-51.042,9.699c-17.871,4.496-35.431,10.166-52.665,16.68
			c-9.347,3.53-18.59,7.309-27.749,11.296c0.732-5.944,2.466-11.807,5.236-17.348l17.622-35.256l15.876-31.754
			c9.091-18.188,31.201-25.561,49.389-16.47l5.864,2.934l49.205,24.6C318.057,123.439,325.619,137.774,324.541,152.236z"/>
		<path style="fill:none;" d="M324.544,152.233c0.128-1.716-8.725-17.666-8.837-19.367c-34.301-3.762-116.82,10.644-143.843,28.56
			l-5.535,11.071c-2.567,5.135-4.231,10.558-5.044,16.058c9.864-4.556,21.042-8.65,33.192-12.099
			c15.423-5.636,31.108-10.579,47.034-14.584c16.763-4.216,33.815-8.016,51.04-9.704
			C303.092,151.134,313.956,150.845,324.544,152.233z"/>
		<g>
			<path style="fill:#FFFFFF;" d="M386.614,167.926c-0.834,10.268-5.435,22.385-13.376,33.391c-0.033-1.455-0.169-3.366-0.527-5.591
				c-1.193-7.525-4.927-18.637-16.05-27.457c-13.165-18.739-62.338-20.997-123.635,0.924
				c-66.978,23.946-117.697,68.84-111.643,97.432c-0.001,0.01,0.008,0.031,0.008,0.04c1.051,4.871,4.925,8.95,10.436,12.275
				c8.344,5.047,20.467,8.366,32.283,10.134c0.924,0.135,1.847,0.271,2.762,0.385c0.328,0.04,0.666,0.09,1.014,0.131
				c0.348,0.041,0.696,0.082,1.054,0.133c-1.998-0.099-3.954-0.226-5.867-0.401c-0.857-0.081-1.703-0.162-2.54-0.252
				c-0.796-0.088-1.592-0.175-2.377-0.282c-24.314-3.176-40.824-13.049-44.24-29.142c-0.47-2.192-0.675-4.458-0.626-6.799
				c0.587-34.286,54.017-83.305,124.118-108.377c74.863-26.801,141.439-20.737,148.697,13.537
				C386.737,161.01,386.908,164.357,386.614,167.926z"/>
			
				<linearGradient id="SVGID_00000183948548489586886610000012787114269392717696_" gradientUnits="userSpaceOnUse" x1="160.4969" y1="300.9973" x2="338.7535" y2="122.7407" gradientTransform="matrix(0.9982 0.0597 -0.0597 0.9982 12.2227 -14.506)">
				<stop  offset="0" style="stop-color:#FF00C1"/>
				<stop  offset="0.1601" style="stop-color:#FE15AD"/>
				<stop  offset="0.4927" style="stop-color:#FA4D7B"/>
				<stop  offset="0.9659" style="stop-color:#F4A52A"/>
				<stop  offset="1" style="stop-color:#F4AC24"/>
			</linearGradient>
			<path style="fill:url(#SVGID_00000183948548489586886610000012787114269392717696_);" d="M373.206,203.859l-0.001,0.01
				c-0.054,0.067-0.098,0.124-0.142,0.192l0.174-2.744c-0.033-1.455-0.169-3.366-0.527-5.591
				c-1.193-7.525-4.927-18.637-16.05-27.457c-1.09-0.867-2.261-1.718-3.505-2.534c-1.231-0.865-2.575-1.677-4.043-2.416
				c-0.019-0.011-0.049-0.023-0.068-0.034c-20.802-10.48-64.776-8.53-116.151,9.286c-66.945,23.217-114.882,64.47-108.791,92.293
				c2.612,11.937,20.596,21.127,40.007,24.21c0.923,0.145,1.837,0.28,2.761,0.395c0.329,0.03,0.666,0.08,1.015,0.121
				c0.348,0.041,0.696,0.082,1.054,0.133c-1.998-0.099-3.954-0.226-5.867-0.401c-0.857-0.081-1.703-0.162-2.54-0.252
				c-0.796-0.088-1.592-0.175-2.377-0.282c-24.308-3.106-40.834-12.719-44.266-28.372c-0.526-2.426-0.726-4.952-0.599-7.569
				c1.529-33.288,54.555-80.238,123.966-104.319c74.834-25.981,141.417-20.027,148.71,13.317c0.417,1.898,0.626,3.934,0.648,6.08
				C386.718,178.581,382.046,191.886,373.206,203.859z"/>
			
				<linearGradient id="SVGID_00000100372926217252045970000004103869813691344007_" gradientUnits="userSpaceOnUse" x1="146.661" y1="132.8845" x2="198.0292" y2="262.6775" gradientTransform="matrix(0.9998 -0.0182 0.0182 0.9998 -3.4752 4.0674)">
				<stop  offset="0" style="stop-color:#831C8B"/>
				<stop  offset="0.1071" style="stop-color:#86218E;stop-opacity:0.8929"/>
				<stop  offset="0.2398" style="stop-color:#8E3195;stop-opacity:0.7602"/>
				<stop  offset="0.3859" style="stop-color:#9C4AA2;stop-opacity:0.6141"/>
				<stop  offset="0.5417" style="stop-color:#AF6DB4;stop-opacity:0.4583"/>
				<stop  offset="0.7052" style="stop-color:#C89ACB;stop-opacity:0.2948"/>
				<stop  offset="0.8724" style="stop-color:#E6D0E7;stop-opacity:0.1276"/>
				<stop  offset="1" style="stop-color:#FFFFFF;stop-opacity:0"/>
			</linearGradient>
			<path style="fill:url(#SVGID_00000100372926217252045970000004103869813691344007_);" d="M232.896,172.572
				c3.982-1.382,7.919-2.665,11.805-3.857c-9.293,0.754-18.558,1.812-27.744,3.414c-15.475,2.698-30.605,7.018-45.105,13.074
				c-6.172,2.578-12.207,5.493-18.066,8.725c-28.081,22.801-44.009,47.696-39.898,66.486c3.92,17.876,24.889,27.877,55.053,29.307
				c-0.357-0.051-0.704-0.089-1.061-0.128c-0.346-0.038-0.681-0.089-1.005-0.126c-20.441-2.605-40.036-12.103-42.775-24.602
				C118.013,237.043,165.946,195.79,232.896,172.572z"/>
			
				<linearGradient id="SVGID_00000167358168985201639790000005225207798798057121_" gradientUnits="userSpaceOnUse" x1="145.5776" y1="337.0111" x2="346.1729" y2="100.6846" gradientTransform="matrix(0.9982 0.0597 -0.0597 0.9982 12.2227 -14.506)">
				<stop  offset="0" style="stop-color:#9C528B"/>
				<stop  offset="0.1259" style="stop-color:#9F578F;stop-opacity:0.8741"/>
				<stop  offset="0.2817" style="stop-color:#A86799;stop-opacity:0.7183"/>
				<stop  offset="0.4532" style="stop-color:#B680AA;stop-opacity:0.5468"/>
				<stop  offset="0.6361" style="stop-color:#CAA3C1;stop-opacity:0.3639"/>
				<stop  offset="0.8258" style="stop-color:#E4CFDF;stop-opacity:0.1742"/>
				<stop  offset="1" style="stop-color:#FFFFFF;stop-opacity:0"/>
			</linearGradient>
			<path style="fill:url(#SVGID_00000167358168985201639790000005225207798798057121_);" d="M372.71,195.725
				c-1.193-7.525-4.927-18.637-16.05-27.457c-1.09-0.867-2.261-1.718-3.505-2.534c-1.231-0.865-2.575-1.677-4.043-2.416
				c-0.019-0.011-0.049-0.023-0.068-0.034c-20.802-10.48-64.776-8.53-116.151,9.286c-66.945,23.217-114.882,64.47-108.791,92.293
				c2.612,11.937,20.596,21.127,40.007,24.21c0.923,0.145,1.837,0.28,2.761,0.395c0.329,0.03,0.666,0.08,1.015,0.121
				c-15.24-1.131-27.615-4.756-36.059-10.651c-4.828-3.364-8.369-7.473-10.436-12.275c-0.606-1.429-1.088-2.91-1.436-4.464
				c-6.936-30.949,45.873-78.953,116.733-102.988c70.872-24.054,133.93-18.461,140.855,12.497
				C378.809,177.327,377.588,186.189,372.71,195.725z"/>
		</g>
		<path style="fill:#000034;" d="M373.238,201.317l-0.174,2.744c0.046,0.073,0.081,0.155,0.107,0.227c0,0,0.019-0.149,0.035-0.419
			l0.001-0.01C373.235,203.38,373.267,202.501,373.238,201.317z"/>
		<path style="fill:none;" d="M373.17,204.288c-0.026-0.072-0.061-0.154-0.107-0.227"/>
		<g>
			
				<ellipse transform="matrix(0.7071 -0.7071 0.7071 0.7071 -53.5422 288.2153)" style="fill:#FFFFFF;" cx="321.135" cy="208.739" rx="36.324" ry="36.324"/>
			
				<linearGradient id="SVGID_00000116934923055143899950000008268782395701019294_" gradientUnits="userSpaceOnUse" x1="305.3485" y1="230.9202" x2="338.5063" y2="193.6642" gradientTransform="matrix(0.9998 -0.0182 0.0182 0.9998 -3.4752 4.0674)">
				<stop  offset="0" style="stop-color:#FF9411"/>
				<stop  offset="0.8149" style="stop-color:#F4D63B"/>
			</linearGradient>
			<circle style="fill:url(#SVGID_00000116934923055143899950000008268782395701019294_);" cx="321.189" cy="211.696" r="36.324"/>
			<g>
				<path style="fill:#FFFFFF;" d="M354.714,211.725c0.058,3.188-0.915,5.785-2.182,5.808c-1.203,0.022-2.229-2.301-2.374-5.278
					c-0.012-0.146-0.015-0.301-0.017-0.446c-0.058-3.179,0.916-5.776,2.182-5.799c0.401-0.007,0.788,0.25,1.134,0.717
					C354.176,207.698,354.674,209.566,354.714,211.725z"/>
				<path style="fill:#FFFFFF;" d="M339.728,235.043c-0.259,0.807-0.718,1.617-1.333,2.366c-0.134,0.166-0.277,0.324-0.429,0.482
					c-2.209,2.282-5.296,2.894-6.892,1.355c-0.102-0.098-0.195-0.197-0.27-0.305c-0.13-0.153-0.234-0.333-0.319-0.514
					c-0.814-1.662-0.167-4.18,1.702-6.118c2.209-2.291,5.287-2.894,6.883-1.355C340.063,231.902,340.246,233.457,339.728,235.043z"
					/>
				<path style="fill:#FFFFFF;" d="M294.308,204.284c-1.596-1.539-1.1-4.644,1.108-6.934c2.208-2.29,5.293-2.899,6.889-1.359
					c1.597,1.54,1.1,4.644-1.108,6.934C298.989,205.215,295.905,205.824,294.308,204.284z"/>
				<path style="fill:#FFFFFF;" d="M343.579,198.561c-1.539,1.596-4.644,1.1-6.934-1.108c-2.29-2.208-2.899-5.293-1.359-6.889
					c1.539-1.596,4.644-1.1,6.934,1.108C344.51,193.88,345.119,196.964,343.579,198.561z"/>
				<path style="fill:#FFFFFF;" d="M306.759,232.517c-1.538,1.595-4.646,1.096-6.936-1.104c-0.046-0.045-0.093-0.089-0.121-0.134
					c-2.19-2.193-2.755-5.19-1.244-6.757c1.547-1.595,4.646-1.105,6.936,1.104c1.252,1.207,2.008,2.688,2.178,4.034
					C307.712,230.768,307.457,231.794,306.759,232.517z"/>
				<path style="fill:#FFFFFF;" d="M323.31,182.056c0.023,1.257-2.536,2.333-5.716,2.391c-3.179,0.058-5.776-0.925-5.799-2.182
					c0-0.027-0.001-0.055,0.008-0.082c0.078-1.232,2.602-2.262,5.708-2.318c0.538-0.01,1.057,0.008,1.55,0.054
					C321.489,180.148,323.291,180.999,323.31,182.056z"/>
				<path style="fill:#FFFFFF;" d="M326.909,213.41c0.058,3.188-2.473,5.813-5.652,5.871s-5.804-2.473-5.862-5.662
					c-0.041-2.241,1.208-4.214,3.059-5.186c0.776-0.415,1.656-0.659,2.594-0.676c2.961-0.054,5.452,2.143,5.814,5.025
					C326.892,212.982,326.906,213.201,326.909,213.41z"/>
			</g>
			<path style="fill:#000034;" d="M354.311,212.893c0.058,3.188-0.915,5.785-2.182,5.808c-1.202,0.022-2.229-2.301-2.374-5.279
				c-0.012-0.146-0.015-0.3-0.017-0.446c-0.058-3.179,0.916-5.776,2.182-5.799c0.401-0.007,0.788,0.25,1.134,0.718
				C353.773,208.866,354.271,210.734,354.311,212.893z"/>
			<path style="fill:#000034;" d="M339.325,236.211c-0.259,0.807-0.718,1.617-1.333,2.366c-0.134,0.167-0.277,0.324-0.429,0.482
				c-2.209,2.282-5.297,2.894-6.892,1.355c-0.102-0.098-0.195-0.197-0.27-0.305c-0.13-0.152-0.234-0.333-0.319-0.514
				c-0.814-1.662-0.167-4.18,1.702-6.118c2.209-2.291,5.287-2.894,6.883-1.355C339.66,233.07,339.843,234.625,339.325,236.211z"/>
			<path style="fill:#000034;" d="M293.905,205.452c-1.596-1.539-1.1-4.644,1.108-6.934c2.208-2.29,5.293-2.899,6.889-1.359
				c1.597,1.539,1.1,4.644-1.108,6.934C298.586,206.383,295.502,206.992,293.905,205.452z"/>
			<path style="fill:#000034;" d="M343.177,199.729c-1.54,1.596-4.644,1.1-6.934-1.108c-2.29-2.208-2.899-5.293-1.359-6.889
				c1.54-1.597,4.644-1.1,6.934,1.108C344.107,195.048,344.716,198.132,343.177,199.729z"/>
			<path style="fill:#000034;" d="M306.357,233.685c-1.538,1.595-4.646,1.096-6.936-1.104c-0.046-0.045-0.093-0.089-0.121-0.134
				c-2.19-2.193-2.755-5.19-1.244-6.757c1.547-1.596,4.646-1.105,6.936,1.104c1.252,1.207,2.008,2.688,2.178,4.034
				C307.309,231.936,307.054,232.962,306.357,233.685z"/>
			<path style="fill:#000034;" d="M322.907,183.224c0.023,1.257-2.536,2.333-5.716,2.391s-5.776-0.925-5.799-2.182
				c0-0.027-0.001-0.055,0.008-0.082c0.078-1.232,2.601-2.262,5.708-2.318c0.537-0.01,1.057,0.008,1.55,0.054
				C321.086,181.316,322.888,182.167,322.907,183.224z"/>
			<path style="fill:#000034;" d="M326.507,214.578c0.058,3.188-2.473,5.813-5.652,5.871s-5.804-2.473-5.862-5.662
				c-0.041-2.241,1.208-4.214,3.059-5.186c0.776-0.415,1.656-0.659,2.594-0.676c2.961-0.054,5.452,2.143,5.814,5.025
				C326.49,214.15,326.503,214.369,326.507,214.578z"/>
			
				<linearGradient id="SVGID_00000080184128990343390160000007487324225737875634_" gradientUnits="userSpaceOnUse" x1="217.1169" y1="258.1065" x2="192.0544" y2="207.146" gradientTransform="matrix(-0.9998 0.0182 0.0182 0.9998 511.6057 -4.8922)">
				<stop  offset="0" style="stop-color:#831C8B"/>
				<stop  offset="0.1071" style="stop-color:#86218E;stop-opacity:0.8929"/>
				<stop  offset="0.2398" style="stop-color:#8E3195;stop-opacity:0.7602"/>
				<stop  offset="0.3859" style="stop-color:#9C4AA2;stop-opacity:0.6141"/>
				<stop  offset="0.5417" style="stop-color:#AF6DB4;stop-opacity:0.4583"/>
				<stop  offset="0.7052" style="stop-color:#C89ACB;stop-opacity:0.2948"/>
				<stop  offset="0.8724" style="stop-color:#E6D0E7;stop-opacity:0.1276"/>
				<stop  offset="1" style="stop-color:#FFFFFF;stop-opacity:0"/>
			</linearGradient>
			<path style="fill:url(#SVGID_00000080184128990343390160000007487324225737875634_);" d="M295.13,186.395
				c-4.03,6.456-7.582,20.528-0.482,32.072c13.777,22.4,48.031,22.888,54.537,16.359c-6.52,7.884-16.305,12.988-27.336,13.188
				c-20.058,0.365-36.614-15.6-36.978-35.658C284.688,202.283,288.626,193.094,295.13,186.395z"/>
		</g>
		<path style="fill:#FFFFFF;" d="M204.989,247.507c-3.47-2.435-7.372-4.543-11.485-6.09c-0.535-0.096-1.07-0.195-1.605-0.291
			c-3.313-0.594-6.986-1.47-10.6-1.693c3.274,6.275,4.007,13.579,2.063,20.379l-16.696,33.396c-0.702,1.404-1.772,2.591-3.095,3.436
			l-0.553,0.353c-1.323,0.844-2.393,2.032-3.095,3.436c-2.143,4.287-1.703,10.382,3.284,14.194l10.866,2.583
			c4.287,2.143,9.5,0.405,11.644-3.882c0.702-1.404,1.01-2.972,0.891-4.538l-0.05-0.654c-0.119-1.565,0.189-3.134,0.891-4.538
			l16.862-33.728c3.502-4.49,8.299-7.767,13.698-9.424C214.272,255.54,210.031,251.045,204.989,247.507z"/>
		
			<linearGradient id="SVGID_00000073710591269263317440000018047624944490354816_" gradientUnits="userSpaceOnUse" x1="178.7443" y1="298.7113" x2="209.2097" y2="235.6795" gradientTransform="matrix(0.9998 -0.0182 0.0182 0.9998 -3.4752 4.0674)">
			<stop  offset="0" style="stop-color:#FF00C1"/>
			<stop  offset="0.1601" style="stop-color:#FE15AD"/>
			<stop  offset="0.4927" style="stop-color:#FA4D7B"/>
			<stop  offset="0.9659" style="stop-color:#F4A52A"/>
			<stop  offset="1" style="stop-color:#F4AC24"/>
		</linearGradient>
		<path style="fill:url(#SVGID_00000073710591269263317440000018047624944490354816_);" d="M205.904,231.132
			c-6.369-1.741-21.652-1.818-30.183,2.969l3.399,4.435c5.379,7.019,6.998,16.087,4.622,24.4l-16.696,33.396
			c-0.702,1.404-1.772,2.591-3.095,3.436l-0.553,0.353c-1.323,0.844-2.393,2.032-3.095,3.436c-2.143,4.287-0.405,9.501,3.882,11.644
			l10.268,5.134c4.287,2.143,9.501,0.405,11.644-3.882c0.702-1.404,1.01-2.972,0.891-4.538l-0.05-0.654
			c-0.119-1.565,0.189-3.134,0.891-4.538l16.862-33.728c5.234-6.71,13.353-10.732,22.067-10.643l6.084,0.063
			C232.841,262.414,230.129,237.756,205.904,231.132z"/>
		
			<radialGradient id="SVGID_00000181789724882783179530000007105781151822830232_" cx="188.8447" cy="90.6457" r="110.2909" gradientTransform="matrix(0.8461 -0.533 0.272 0.4317 2.5561 152.7884)" gradientUnits="userSpaceOnUse">
			<stop  offset="0" style="stop-color:#FFFFFF"/>
			<stop  offset="0.9964" style="stop-color:#FFFFFF;stop-opacity:0"/>
		</radialGradient>
		<path style="fill:url(#SVGID_00000181789724882783179530000007105781151822830232_);" d="M255.084,91.949
			c-5.538,8.412-13.019,16.679-22.157,24.017c-16.127,12.955-33.977,20.271-48.971,21.274l15.876-31.754
			c9.091-18.188,31.201-25.561,49.389-16.47L255.084,91.949z"/>
	</g>
</g>
<g id="TEXTS">
	<g>
		
			<text transform="matrix(1 0 0 1 118.4463 376.8824)" style="fill:#000034; font-family:'PaytoneOne-Regular'; font-size:53.6419px;">PICKLEBALL</text>
	</g>
	<g>
		
			<text transform="matrix(1 0 0 1 141.3065 403.7532)" style="fill:#000034; font-family:'Montserrat-Regular'; font-size:17.1781px; letter-spacing:6;">THE SPORT CLUB</text>
	</g>
</g>
</svg>
